<svg xmlns="http://www.w3.org/2000/svg" viewBox="0 0 133.05 142.41"><defs><style>.a{isolation:isolate;}.b,.c,.d,.e{fill-rule:evenodd;}.c{fill:#eedf66;}.d{fill:#e63422;}.e{fill:#00a0e9;}</style></defs><title>ymmc</title><g class="a"><path class="b" transform="translate(-10.23 -0.82)" d="M 133.7 104.4 H 102.38 V 104 l -0.11 0.18 L 91.15 85 h 42.53 V 81.72 H 89.42 v -0.4 l -0.11 0.18 L 78.19 62.28 h 55.48 V 59 H 76.46 v -0.4 l -0.11 0.18 L 65.23 39.6 h 68.42 V 36.47 L 71.92 0.82 L 10.23 36.38 l 0 71.21 L 72 143.23 l 61.69 -35.56 Z M 40.27 67 h -2.5 v 5 h -2.5 v 2.5 h -2.5 V 87 h -2.5 V 74.48 h -2.5 V 72 h -2.5 V 67 h -2.5 V 62 h 2.5 v 5 h 2.5 v 5 h 2.5 v 2.5 h 2.5 V 72 h 2.5 V 67 h 2.5 V 62 h 2.5 Z m 17.5 50 h -2.5 V 102 h -2.5 v 5 h -5 v -5 h -2.5 v 15 h -2.5 V 92 h 2.5 v 5 h 2.5 v 5 h 5 V 97 h 2.5 V 92 h 2.5 Z m 0 -30 h -2.5 V 72 h -2.5 v 5 h -5 V 72 h -2.5 V 87 h -2.5 V 62 h 2.5 v 5 h 2.5 v 5 h 5 V 67 h 2.5 V 62 h 2.5 Z m 20 12.5 h -2.5 v -5 h -10 v 20 h 10 v -5 h 2.5 v 5 h -2.5 V 117 h -10 v -2.5 h -2.5 v -20 h 2.5 V 92 h 10 v 2.5 h 2.5 Z"/></g><polygon class="c" points="81.45,63.5 81.45,63.5 72.57,63.5 81.45,78.86 81.45,78.85 81.45,79.1 133.05,79.1 133.05,63.5 81.45,63.5"/><polygon class="d" points="68.73,40.7 68.73,40.72 59.62,40.72 68.52,56.1 68.73,55.74 68.73,56.3 133.05,56.3 133.05,40.7 68.73,40.7"/><polygon class="e" points="94.5,86.06 94.5,86.08 85.53,86.08 94.41,101.46 94.5,101.3 94.5,101.66 133.05,101.66 133.05,86.06 94.5,86.06"/></svg>